<?xml version="1.0" standalone="no"?>
<!DOCTYPE svg PUBLIC "-//W3C//DTD SVG 20010904//EN"
 "http://www.w3.org/TR/2001/REC-SVG-20010904/DTD/svg10.dtd">
<svg version="1.0" xmlns="http://www.w3.org/2000/svg"
 width="128.000000pt" height="128.000000pt" viewBox="0 0 128.000000 128.000000"
 preserveAspectRatio="xMidYMid meet">

<g transform="translate(0.000000,128.000000) scale(0.100000,-0.100000)"
fill="#000000" stroke="none">
<path d="M216 1214 c-14 -14 -16 -80 -16 -574 0 -508 2 -560 17 -575 15 -15
44 -16 287 -13 238 4 278 7 332 25 195 65 306 245 320 523 18 327 -143 578
-396 619 -36 6 -169 11 -297 11 -197 0 -234 -2 -247 -16z m626 -91 c162 -77
248 -248 248 -491 -1 -229 -86 -399 -239 -475 l-65 -32 -258 -3 -258 -3 0 521
0 521 253 -3 252 -3 67 -32z"/>
<path d="M377 1038 c-2 -7 0 -22 6 -33 17 -31 37 -169 26 -180 -13 -13 -11
-59 3 -73 15 -15 -17 -140 -43 -165 -24 -23 -24 -34 0 -46 11 -6 33 -33 49
-60 27 -44 30 -53 20 -80 -9 -23 -9 -36 1 -58 12 -26 11 -30 -20 -55 -18 -16
-38 -28 -45 -28 -6 0 -17 -7 -24 -16 -11 -12 -10 -18 3 -31 13 -13 19 -14 31
-3 9 7 16 18 16 25 0 22 67 74 88 68 11 -2 30 0 41 7 19 10 28 6 71 -30 32
-27 50 -50 52 -68 2 -22 8 -27 32 -27 64 0 59 67 -5 73 -51 5 -109 65 -109
112 0 20 -5 41 -11 47 -13 13 37 133 56 133 15 0 75 -83 84 -118 7 -23 13 -27
47 -28 48 -1 114 -29 114 -48 0 -18 27 -46 45 -46 22 0 45 29 45 56 0 32 -38
51 -69 35 -17 -9 -31 -7 -71 10 -27 12 -50 27 -50 33 0 7 14 31 31 55 23 30
35 39 42 32 19 -19 72 -12 95 12 47 50 11 127 -60 127 -28 0 -118 61 -118 80
0 5 32 27 72 50 62 36 75 40 94 30 29 -16 63 -4 70 26 8 32 -11 54 -47 54 -22
0 -32 -6 -39 -24 -10 -27 -142 -111 -162 -103 -22 8 -59 126 -48 147 39 72
-38 142 -101 92 -17 -14 -22 -30 -23 -64 -1 -41 -5 -49 -49 -86 -51 -44 -55
-46 -73 -34 -17 11 -36 153 -22 169 5 7 8 20 4 28 -7 18 -43 20 -49 3z m269
-138 c15 0 25 -13 39 -52 11 -29 19 -66 20 -83 0 -23 5 -31 21 -33 11 -2 38
-21 59 -42 31 -32 36 -42 26 -54 -6 -8 -11 -32 -10 -54 2 -31 -4 -48 -30 -81
-18 -22 -39 -41 -46 -41 -24 0 -78 88 -71 115 7 26 -22 65 -46 65 -23 0 -118
126 -118 156 0 36 85 116 115 109 11 -3 29 -5 41 -5z m-117 -206 c38 -49 45
-64 46 -108 2 -36 -4 -64 -20 -96 -21 -41 -27 -46 -58 -47 -30 -1 -37 4 -58
41 -37 63 -40 101 -17 183 19 65 25 74 58 82 3 0 25 -24 49 -55z"/>
</g>
</svg>
