<?xml version="1.0" standalone="no"?>
<!DOCTYPE svg PUBLIC "-//W3C//DTD SVG 20010904//EN"
 "http://www.w3.org/TR/2001/REC-SVG-20010904/DTD/svg10.dtd">
<svg version="1.0" xmlns="http://www.w3.org/2000/svg"
 width="1200.000000pt" height="2000.000000pt" viewBox="0 0 1200.000000 2000.000000"
 preserveAspectRatio="xMidYMid meet">

<g transform="translate(0.000000,2000.000000) scale(0.100000,-0.100000)"
fill="#000000" stroke="none">
<path d="M5454 11781 c-666 -6 -629 -3 -677 -56 -17 -19 -18 -105 -14 -2262 5
-2181 5 -2243 24 -2275 41 -72 -15 -68 988 -68 1023 0 1111 5 1395 71 376 89
702 314 945 654 64 90 166 275 206 375 56 141 76 198 104 295 9 33 21 74 26
90 10 30 41 180 59 285 36 205 48 758 21 955 -29 219 -88 480 -147 655 -149
443 -428 810 -782 1030 -223 138 -376 190 -707 240 -92 14 -667 18 -1441 11z
m121 -261 c3 -5 1 -10 -4 -10 -6 0 -11 5 -11 10 0 6 2 10 4 10 3 0 8 -4 11
-10z"/>
</g>
</svg>
